<svg class="fx-anim-package" xmlns="http://www.w3.org/2000/svg" viewBox="0 0 24 24" fill="none" stroke="currentColor" stroke-width="2" stroke-linecap="round" stroke-linejoin="round">
  <style>
.fx-anim-package path{ stroke-dasharray:100; stroke-dashoffset:100; animation: fitz-draw-package 2.4s ease-in-out infinite; }
@keyframes fitz-draw-package{ 0%{stroke-dashoffset:100;} 40%{stroke-dashoffset:0;} 60%{stroke-dashoffset:0;} 100%{stroke-dashoffset:100;} }
@media (prefers-reduced-motion: reduce){ .fx-anim-package path{ animation:none !important; stroke-dasharray:none !important; stroke-dashoffset:0 !important; } }
  </style>
<path d="M21 16V8a2 2 0 0 0-1-1.73l-7-4a2 2 0 0 0-2 0l-7 4A2 2 0 0 0 3 8v8a2 2 0 0 0 1 1.73l7 4a2 2 0 0 0 2 0l7-4A2 2 0 0 0 21 16z" pathLength="100"/><path d="M3.27 6.96L12 12.01l8.73-5.05" pathLength="100"/><path d="M12 22.08V12" pathLength="100"/>
</svg>
